# xmcd
#
# Track frame offsets:
#	150
#	12585
#	25290
#	38466
#	51055
#	63231
#	75624
#	86764
#	98001
#	109804
#	123275
#	134107
#	147099
#	158168
#	171924
#	184667
#	196644
#	210009
#	222346
#	236416
#
# Disc length: 3302 seconds
#
# Revision: 0
# Processed by: cddbd v1.5.2PL0 Copyright (c) Steve Scherf et al.
# Submitted via: audiograbber 1.83.01
#
DISCID=060ce414
DTITLE=Roy Roger - Country Music Legends [CD 2)
DYEAR=2007
DGENRE=Country
TTITLE0=Headin' For Texas And Home
TTITLE1=When The Sun Is Setting On The Prairie
TTITLE2=Born To The Saddle
TTITLE3=I've Learned A Lot About Women
TTITLE4=I Sold My Saddle For An Old Guitar
TTITLE5=Colorado Sunset
TTITLE6=Ridin' Ropin'
TTITLE7=Hi-Yo Silver!
TTITLE8=I'm Restless
TTITLE9=My Heart Went That-A-Way
TTITLE10=My Chickashay Gal
TTITLE11=Dangerous Ground
TTITLE12=Make Believe Cowboy
TTITLE13=Pecos Bill
TTITLE14=I Hope I'm Not Dreaming Again
TTITLE15=Home On The Range
TTITLE16=Along The Navajo Trail
TTITLE17=When The Golden Train Comes Down
TTITLE18=Round That Couple Go Through And Swing
TTITLE19=Next To The X In Texas
EXTD=
EXTT0=
EXTT1=
EXTT2=
EXTT3=
EXTT4=
EXTT5=
EXTT6=
EXTT7=
EXTT8=
EXTT9=
EXTT10=
EXTT11=
EXTT12=
EXTT13=
EXTT14=
EXTT15=
EXTT16=
EXTT17=
EXTT18=
EXTT19=
PLAYORDER=
